<svg xmlns="http://www.w3.org/2000/svg" xmlns:xlink="http://www.w3.org/1999/xlink" width="50" zoomAndPan="magnify" viewBox="0 0 37.5 37.499999" height="50" preserveAspectRatio="xMidYMid meet" version="1.0"><defs><g/><clipPath id="859b64b918"><path d="M 0 0 L 37.007812 0 L 37.007812 37.007812 L 0 37.007812 Z M 0 0 " clip-rule="nonzero"/></clipPath><clipPath id="8e424d3fe8"><path d="M 22 6 L 37.007812 6 L 37.007812 30 L 22 30 Z M 22 6 " clip-rule="nonzero"/></clipPath><clipPath id="3e650d1c3a"><path d="M 10.5 10.175781 L 26.25 10.175781 L 26.25 25.925781 L 10.5 25.925781 Z M 10.5 10.175781 " clip-rule="nonzero"/></clipPath></defs><g clip-path="url(#859b64b918)"><path fill="#ffffff" d="M 0 0 L 37.5 0 L 37.5 45 L 0 45 Z M 0 0 " fill-opacity="1" fill-rule="nonzero"/><path fill="#ffffff" d="M 0 0 L 37.5 0 L 37.5 37.5 L 0 37.5 Z M 0 0 " fill-opacity="1" fill-rule="nonzero"/><path fill="#9b7fc2" d="M 0 0 L 37.5 0 L 37.5 37.5 L 0 37.5 Z M 0 0 " fill-opacity="1" fill-rule="nonzero"/></g><g fill="#5f2c99" fill-opacity="1"><g transform="translate(0.370313, 27.175009)"><g><path d="M 4.644531 -16.976562 C 4.507812 -16.953125 4.535156 -16.84375 4.535156 -16.734375 C 4.371094 -16.679688 4.425781 -16.546875 4.425781 -16.4375 L 4.535156 -16.4375 L 4.535156 -16.734375 L 4.644531 -16.734375 C 4.617188 -16.628906 4.667969 -16.492188 4.535156 -16.410156 C 4.535156 -16.359375 4.535156 -16.332031 4.507812 -16.304688 C 4.507812 -16.277344 4.480469 -16.25 4.480469 -16.222656 C 4.453125 -16.25 4.453125 -16.277344 4.425781 -16.304688 L 4.425781 -16.410156 C 4.265625 -16.304688 4.238281 -16.167969 4.210938 -16.035156 C 4.183594 -15.925781 4.238281 -15.871094 4.292969 -15.84375 C 4.292969 -15.789062 4.320312 -15.683594 4.238281 -15.683594 C 4.210938 -15.683594 4.183594 -15.683594 4.128906 -15.710938 C 4.128906 -15.710938 4.101562 -15.65625 4.101562 -15.628906 C 4.074219 -15.546875 4.074219 -15.464844 4.074219 -15.414062 C 3.941406 -15.386719 3.96875 -15.277344 3.96875 -15.167969 C 3.804688 -15.117188 3.859375 -14.980469 3.859375 -14.871094 C 3.832031 -14.871094 3.832031 -14.847656 3.804688 -14.847656 C 3.726562 -14.628906 3.617188 -14.414062 3.617188 -14.199219 C 3.589844 -14.171875 3.5625 -14.144531 3.5625 -14.117188 C 3.507812 -13.875 3.429688 -13.605469 3.347656 -13.386719 C 3.292969 -13.199219 3.292969 -13.0625 3.375 -12.929688 C 3.402344 -12.847656 3.402344 -12.792969 3.402344 -12.742188 C 3.402344 -12.714844 3.375 -12.714844 3.347656 -12.6875 C 3.320312 -12.714844 3.320312 -12.742188 3.292969 -12.765625 L 3.265625 -12.792969 C 3.183594 -12.550781 3.183594 -12.550781 3.265625 -12.390625 C 3.292969 -12.308594 3.292969 -12.253906 3.292969 -12.171875 C 3.292969 -12.171875 3.292969 -12.148438 3.265625 -12.148438 C 3.210938 -12.148438 3.210938 -12.171875 3.183594 -12.199219 C 3.15625 -12.199219 3.132812 -12.226562 3.105469 -12.253906 C 3.078125 -12.039062 2.996094 -11.875 2.96875 -11.660156 C 2.941406 -11.257812 2.835938 -11.203125 2.457031 -11.121094 C 2.402344 -11.09375 2.347656 -11.09375 2.292969 -11.09375 C 2.214844 -11.09375 2.132812 -11.09375 2.050781 -11.121094 C 1.917969 -11.148438 1.753906 -11.175781 1.59375 -11.175781 C 1.429688 -11.175781 1.296875 -11.148438 1.132812 -11.09375 C 1.027344 -11.066406 0.972656 -10.984375 0.972656 -10.851562 C 0.945312 -10.472656 0.945312 -10.390625 1.214844 -10.390625 C 1.269531 -10.390625 1.324219 -10.390625 1.402344 -10.390625 C 1.671875 -10.390625 1.945312 -10.390625 2.242188 -10.417969 C 2.292969 -10.417969 2.347656 -10.445312 2.402344 -10.445312 C 2.484375 -10.445312 2.5625 -10.417969 2.617188 -10.390625 C 2.644531 -10.203125 2.671875 -9.960938 2.539062 -9.746094 C 2.5625 -9.472656 2.347656 -9.230469 2.402344 -8.933594 C 2.320312 -8.90625 2.320312 -8.855469 2.292969 -8.773438 C 2.242188 -8.554688 2.375 -8.394531 2.375 -8.179688 C 2.375 -8.152344 2.347656 -8.125 2.347656 -8.097656 C 2.320312 -8.125 2.292969 -8.152344 2.292969 -8.179688 C 2.265625 -8.234375 2.265625 -8.234375 2.214844 -8.257812 C 2.1875 -7.988281 2.132812 -7.773438 2.105469 -7.558594 C 2.050781 -7.316406 1.96875 -7.097656 1.96875 -6.828125 C 1.96875 -6.585938 1.890625 -6.371094 1.835938 -6.128906 C 1.78125 -5.855469 1.753906 -5.613281 1.753906 -5.316406 C 1.753906 -5.238281 1.753906 -5.128906 1.726562 -5.046875 C 1.621094 -4.886719 1.648438 -4.667969 1.621094 -4.507812 C 1.539062 -4.210938 1.539062 -3.914062 1.484375 -3.644531 C 1.351562 -3.105469 1.351562 -2.5625 1.1875 -2.023438 C 1.1875 -1.59375 1.027344 -1.242188 1.050781 -0.808594 C 1.050781 -0.78125 1.027344 -0.730469 1.027344 -0.703125 C 1 -0.675781 0.945312 -0.621094 0.863281 -0.648438 C 0.78125 -0.703125 0.675781 -0.730469 0.59375 -0.808594 C 0.433594 -0.945312 0.296875 -1.078125 0.160156 -1.242188 C -0.0546875 -0.972656 -0.0273438 -0.730469 0.1875 -0.539062 C 0.324219 -0.351562 0.484375 -0.214844 0.675781 -0.0820312 C 0.835938 0.0820312 0.890625 0.269531 0.808594 0.484375 C 0.703125 0.863281 0.753906 1.242188 0.835938 1.621094 C 0.863281 1.78125 0.972656 1.945312 1.078125 2.023438 C 1.105469 2.050781 1.160156 2.078125 1.1875 2.078125 C 1.214844 2.078125 1.242188 2.050781 1.269531 2.050781 C 1.402344 1.96875 1.511719 1.863281 1.511719 1.726562 C 1.539062 1.539062 1.726562 1.429688 1.808594 1.269531 C 1.890625 1.132812 1.835938 0.917969 1.96875 0.753906 C 1.996094 0.675781 2.050781 0.621094 2.160156 0.621094 C 2.242188 0.621094 2.320312 0.621094 2.402344 0.648438 C 2.617188 0.753906 2.835938 0.753906 3.078125 0.753906 C 3.132812 0.753906 3.210938 0.78125 3.292969 0.808594 C 3.429688 0.835938 3.5625 0.863281 3.699219 0.863281 C 3.832031 0.863281 3.96875 0.835938 4.101562 0.78125 C 4.210938 0.78125 4.238281 0.78125 4.347656 0.835938 C 4.398438 0.890625 4.453125 0.917969 4.480469 0.917969 C 4.535156 0.917969 4.5625 0.890625 4.617188 0.835938 C 4.667969 0.78125 4.75 0.753906 4.804688 0.753906 C 4.859375 0.753906 4.914062 0.78125 4.941406 0.78125 C 5.019531 0.808594 5.101562 0.835938 5.210938 0.863281 C 5.316406 0.917969 5.398438 0.945312 5.507812 0.945312 C 5.558594 0.945312 5.640625 0.945312 5.722656 0.890625 C 6.074219 0.863281 6.425781 0.753906 6.800781 0.621094 C 6.828125 0.621094 6.882812 0.621094 6.910156 0.621094 C 7.289062 0.621094 7.585938 0.433594 7.960938 0.40625 C 8.015625 0.40625 8.042969 0.351562 8.097656 0.296875 C 8.125 0.242188 8.152344 0.1875 8.207031 0.214844 C 8.257812 0.242188 8.285156 0.242188 8.339844 0.242188 C 8.476562 0.242188 8.582031 0.136719 8.71875 0.0820312 C 8.933594 0 9.152344 -0.136719 9.367188 -0.1875 C 9.554688 -0.214844 9.664062 -0.324219 9.796875 -0.433594 C 9.933594 -0.539062 10.121094 -0.484375 10.285156 -0.566406 C 10.472656 -0.730469 10.714844 -0.808594 10.933594 -0.972656 C 10.984375 -1 11.066406 -1.027344 11.09375 -1.078125 C 11.230469 -1.351562 11.527344 -1.484375 11.769531 -1.671875 C 11.902344 -1.78125 12.039062 -1.890625 12.121094 -2.050781 C 12.363281 -2.429688 12.792969 -2.671875 12.929688 -3.132812 C 12.929688 -3.183594 12.984375 -3.210938 13.011719 -3.238281 C 13.46875 -3.589844 13.820312 -4.589844 13.875 -5.15625 C 13.929688 -5.640625 13.902344 -6.128906 13.710938 -6.585938 C 13.710938 -6.910156 13.550781 -7.316406 13.386719 -7.613281 C 13.226562 -7.855469 13.089844 -8.097656 12.792969 -8.152344 C 12.6875 -8.179688 12.742188 -8.285156 12.742188 -8.339844 C 12.714844 -8.476562 12.523438 -8.476562 12.445312 -8.582031 C 12.039062 -8.960938 11.554688 -9.230469 11.09375 -9.5 C 10.015625 -10.042969 8.691406 -10.472656 7.503906 -10.636719 C 7.261719 -10.660156 7.019531 -10.742188 6.773438 -10.742188 C 6.613281 -10.769531 6.53125 -10.878906 6.53125 -11.039062 C 6.503906 -11.257812 6.640625 -11.472656 6.722656 -11.6875 C 6.800781 -11.875 6.855469 -11.957031 6.992188 -12.011719 C 7.640625 -12.335938 8.234375 -12.632812 8.773438 -13.117188 C 8.855469 -13.171875 8.933594 -13.199219 9.015625 -13.28125 C 9.5 -13.550781 9.960938 -13.847656 10.339844 -14.253906 C 10.609375 -14.574219 11.039062 -14.738281 11.230469 -15.144531 C 11.230469 -15.167969 11.28125 -15.222656 11.308594 -15.222656 C 11.578125 -15.304688 11.660156 -15.546875 11.824219 -15.738281 C 11.875 -15.816406 11.929688 -15.953125 12.011719 -16.058594 C 12.417969 -16.382812 12.820312 -17.597656 12.929688 -18.085938 C 13.011719 -18.328125 12.984375 -18.570312 13.089844 -18.785156 C 13.039062 -19.03125 13.039062 -19.300781 12.929688 -19.542969 C 12.605469 -20.460938 11.308594 -21.1875 10.363281 -21.1875 C 10.175781 -21.214844 9.960938 -21.214844 9.769531 -21.214844 C 9.554688 -21.214844 9.367188 -21.214844 9.152344 -21.1875 C 8.746094 -21.1875 8.125 -20.890625 7.828125 -20.675781 C 7.746094 -20.59375 7.691406 -20.566406 7.613281 -20.566406 C 7.585938 -20.566406 7.53125 -20.566406 7.476562 -20.59375 C 7.421875 -20.621094 7.34375 -20.542969 7.34375 -20.460938 C 7.367188 -20.378906 7.367188 -20.351562 7.289062 -20.324219 C 7.207031 -20.296875 7.152344 -20.21875 7.070312 -20.191406 C 7.070312 -20.296875 6.992188 -20.324219 6.9375 -20.296875 C 6.695312 -20.109375 6.503906 -19.921875 6.316406 -19.675781 C 6.289062 -19.652344 6.316406 -19.597656 6.289062 -19.542969 C 6.234375 -19.542969 6.207031 -19.460938 6.207031 -19.40625 L 6.289062 -19.40625 C 6.289062 -19.355469 6.261719 -19.328125 6.179688 -19.300781 L 6.179688 -19.40625 C 6.128906 -19.40625 6.101562 -19.355469 6.101562 -19.300781 L 6.207031 -19.300781 C 6.179688 -19.21875 6.152344 -19.109375 6.074219 -19.03125 C 6.046875 -19.003906 6.019531 -18.976562 5.964844 -18.976562 C 5.910156 -18.976562 5.882812 -19.03125 5.855469 -19.109375 C 5.855469 -19.082031 5.855469 -19.082031 5.855469 -19.058594 C 5.695312 -19.03125 5.640625 -18.921875 5.640625 -18.761719 C 5.453125 -18.679688 5.425781 -18.570312 5.398438 -18.4375 C 5.316406 -18.410156 5.261719 -18.355469 5.238281 -18.246094 C 5.101562 -17.976562 4.914062 -17.734375 4.886719 -17.410156 L 4.964844 -17.410156 C 4.964844 -17.328125 4.964844 -17.25 4.859375 -17.195312 L 4.859375 -17.410156 C 4.722656 -17.382812 4.75 -17.273438 4.75 -17.195312 L 4.886719 -17.195312 C 4.832031 -17.140625 4.804688 -17.113281 4.777344 -17.113281 C 4.777344 -17.113281 4.75 -17.140625 4.722656 -17.195312 C 4.617188 -17.140625 4.644531 -17.058594 4.644531 -16.976562 Z M 8.933594 -9.796875 C 8.988281 -9.746094 9.042969 -9.824219 9.097656 -9.851562 C 9.125 -9.824219 9.152344 -9.746094 9.203125 -9.71875 C 9.527344 -9.636719 9.796875 -9.421875 10.175781 -9.394531 C 10.363281 -9.394531 10.445312 -9.125 10.6875 -9.152344 C 11.039062 -8.933594 11.417969 -8.773438 11.769531 -8.53125 C 12.039062 -8.394531 12.605469 -7.746094 12.765625 -7.503906 C 12.902344 -7.207031 13.144531 -6.910156 13.199219 -6.558594 C 13.226562 -6.152344 13.199219 -5.75 13.199219 -5.316406 C 13.199219 -5.238281 13.144531 -5.15625 13.117188 -5.074219 C 12.847656 -4.480469 12.496094 -3.996094 12.199219 -3.429688 L 11.875 -3.105469 C 11.742188 -2.96875 11.605469 -2.859375 11.5 -2.699219 C 11.066406 -2.214844 10.472656 -1.863281 9.960938 -1.429688 C 9.933594 -1.402344 9.878906 -1.375 9.796875 -1.351562 C 9.203125 -1.027344 8.554688 -0.730469 7.882812 -0.484375 C 7.476562 -0.296875 7.019531 -0.214844 6.585938 -0.0820312 C 6.503906 -0.0273438 6.425781 -0.0273438 6.316406 -0.0273438 C 6.046875 0 5.777344 -0.0273438 5.507812 0.0546875 C 5.398438 0.0820312 5.289062 0.109375 5.183594 0.109375 C 5.019531 0.109375 4.886719 0.0820312 4.722656 0.0820312 C 4.667969 0.0820312 4.617188 0.109375 4.589844 0.136719 C 4.507812 0.160156 4.589844 0.109375 4.5625 0.160156 C 4.5625 0.1875 4.589844 0.242188 4.589844 0.242188 C 4.644531 0.269531 4.722656 0.269531 4.777344 0.269531 C 4.804688 0.269531 4.832031 0.269531 4.859375 0.269531 C 5.019531 0.1875 5.183594 0.1875 5.34375 0.1875 C 5.480469 0.1875 5.613281 0.1875 5.75 0.1875 C 5.804688 0.242188 5.804688 0.242188 5.75 0.269531 L 5.667969 0.269531 C 5.425781 0.296875 5.238281 0.296875 4.992188 0.378906 C 4.886719 0.40625 4.75 0.40625 4.644531 0.40625 C 4.535156 0.40625 4.398438 0.40625 4.265625 0.40625 C 4.238281 0.269531 4.347656 0.296875 4.371094 0.242188 C 4.425781 0.1875 4.425781 0.136719 4.347656 0.109375 C 4.292969 0.0820312 4.210938 0.0820312 4.15625 0.0820312 C 3.726562 0.0820312 3.320312 0.0820312 2.914062 0.0546875 C 2.808594 0.0546875 2.726562 0.0546875 2.644531 0.0273438 C 2.589844 0 2.511719 -0.0820312 2.539062 -0.160156 C 2.589844 -0.324219 2.644531 -0.484375 2.699219 -0.621094 C 2.753906 -0.78125 2.886719 -0.917969 2.886719 -1.078125 C 2.886719 -1.160156 2.914062 -1.296875 2.96875 -1.351562 C 3.15625 -1.566406 3.183594 -1.890625 3.292969 -2.160156 C 3.402344 -2.457031 3.507812 -2.726562 3.617188 -3.023438 C 3.753906 -3.320312 3.886719 -3.589844 3.96875 -3.886719 C 4.15625 -4.425781 4.371094 -4.914062 4.507812 -5.453125 C 4.535156 -5.480469 4.535156 -5.558594 4.535156 -5.613281 C 4.507812 -5.804688 4.589844 -5.992188 4.667969 -6.128906 C 4.832031 -6.289062 4.859375 -6.453125 4.941406 -6.613281 C 4.992188 -6.773438 5.019531 -6.910156 5.101562 -7.070312 C 5.238281 -7.261719 5.261719 -7.503906 5.316406 -7.691406 C 5.316406 -7.746094 5.316406 -7.800781 5.34375 -7.882812 C 5.480469 -8.042969 6.019531 -9.636719 6.101562 -9.933594 C 6.128906 -10.042969 6.179688 -10.09375 6.261719 -10.203125 C 6.289062 -10.230469 6.371094 -10.257812 6.425781 -10.230469 C 6.476562 -10.230469 6.558594 -10.175781 6.613281 -10.203125 C 7.097656 -10.203125 7.640625 -10.09375 8.097656 -9.960938 C 8.367188 -9.851562 8.636719 -9.851562 8.933594 -9.796875 Z M 11.984375 -20.027344 C 12.253906 -19.675781 12.445312 -19.328125 12.417969 -18.867188 C 12.417969 -17.734375 11.5 -16.277344 10.742188 -15.519531 C 10.5 -15.332031 10.285156 -15.089844 10.066406 -14.871094 C 9.582031 -14.359375 8.988281 -13.957031 8.449219 -13.523438 C 8.207031 -13.359375 7.988281 -13.226562 7.773438 -13.0625 C 7.613281 -12.929688 7.421875 -12.847656 7.234375 -12.742188 C 7.234375 -12.742188 7.179688 -12.765625 7.152344 -12.765625 C 7.097656 -12.792969 7.097656 -12.847656 7.097656 -12.902344 C 7.179688 -13.011719 7.207031 -13.144531 7.261719 -13.308594 C 7.449219 -13.792969 7.585938 -14.304688 7.746094 -14.792969 C 7.828125 -15.007812 7.855469 -15.222656 7.9375 -15.386719 C 8.125 -16.195312 8.449219 -16.953125 8.71875 -17.734375 C 8.800781 -18.058594 8.828125 -18.355469 8.636719 -18.625 C 8.582031 -18.734375 8.53125 -18.761719 8.476562 -18.761719 C 8.339844 -18.761719 8.234375 -18.734375 8.207031 -18.597656 C 7.855469 -17.816406 7.664062 -16.976562 7.421875 -16.140625 C 7.367188 -16.007812 7.34375 -15.816406 7.289062 -15.683594 C 7.070312 -15.089844 6.910156 -14.523438 6.722656 -13.929688 L 6.316406 -12.632812 C 6.289062 -12.550781 6.261719 -12.445312 6.234375 -12.363281 C 6.179688 -12.226562 6.101562 -12.148438 5.9375 -12.039062 C 5.558594 -11.875 4.320312 -11.417969 3.886719 -11.417969 C 3.804688 -11.390625 3.726562 -11.308594 3.644531 -11.308594 C 3.617188 -11.308594 3.589844 -11.308594 3.5625 -11.335938 C 3.480469 -11.445312 3.507812 -11.578125 3.5625 -11.6875 C 3.777344 -12.46875 4.074219 -13.28125 4.210938 -14.089844 C 4.371094 -14.359375 4.371094 -14.710938 4.535156 -15.007812 L 5.101562 -16.382812 C 5.316406 -16.789062 5.480469 -17.195312 5.695312 -17.570312 C 5.882812 -17.894531 6.101562 -18.21875 6.398438 -18.488281 C 6.453125 -18.515625 6.503906 -18.542969 6.503906 -18.597656 C 6.613281 -19.03125 6.964844 -19.300781 7.289062 -19.570312 C 7.585938 -19.785156 7.855469 -20 8.179688 -20.21875 C 8.234375 -20.269531 8.3125 -20.296875 8.367188 -20.324219 C 8.636719 -20.40625 8.90625 -20.488281 9.203125 -20.566406 C 9.3125 -20.621094 9.421875 -20.621094 9.527344 -20.621094 C 9.664062 -20.648438 9.769531 -20.648438 9.90625 -20.648438 C 10.042969 -20.648438 10.175781 -20.648438 10.3125 -20.675781 C 10.363281 -20.675781 10.390625 -20.675781 10.445312 -20.675781 C 11.011719 -20.675781 11.5 -20.324219 11.984375 -20.027344 Z M 2.375 -5.558594 C 2.457031 -5.855469 2.402344 -6.152344 2.402344 -6.476562 C 2.5625 -6.640625 2.617188 -6.855469 2.617188 -7.097656 C 2.644531 -7.261719 2.671875 -7.421875 2.726562 -7.640625 C 2.78125 -7.910156 2.914062 -8.179688 2.886719 -8.476562 C 2.835938 -8.636719 2.941406 -8.746094 2.96875 -8.855469 C 3.050781 -9.367188 3.105469 -9.878906 3.347656 -10.339844 C 3.375 -10.417969 3.453125 -10.472656 3.535156 -10.472656 C 3.671875 -10.472656 3.777344 -10.5 3.886719 -10.5 C 4.023438 -10.5 4.128906 -10.472656 4.265625 -10.417969 C 4.347656 -10.390625 4.425781 -10.390625 4.507812 -10.390625 C 4.589844 -10.390625 4.667969 -10.390625 4.75 -10.390625 L 5.261719 -10.390625 C 5.480469 -10.390625 5.480469 -10.363281 5.425781 -10.09375 C 5.371094 -9.746094 5.238281 -9.449219 5.101562 -9.125 C 4.992188 -8.691406 4.832031 -8.285156 4.667969 -7.882812 C 4.371094 -6.855469 4.023438 -5.882812 3.671875 -4.886719 C 3.480469 -4.453125 3.320312 -4.023438 3.15625 -3.535156 C 2.886719 -2.753906 2.589844 -1.945312 2.214844 -1.1875 C 2.050781 -0.917969 1.996094 -0.566406 1.78125 -0.296875 C 1.726562 -0.730469 1.753906 -1.078125 1.808594 -1.402344 C 1.863281 -1.699219 1.863281 -1.96875 1.917969 -2.265625 C 1.808594 -2.429688 1.96875 -2.539062 1.96875 -2.671875 C 1.945312 -2.835938 1.945312 -2.96875 1.96875 -3.050781 C 2.105469 -3.265625 2.050781 -3.453125 2.050781 -3.671875 C 2.132812 -3.996094 2.132812 -4.347656 2.214844 -4.644531 C 2.320312 -4.941406 2.292969 -5.261719 2.375 -5.558594 Z M 5.804688 -11.203125 C 5.777344 -11.121094 5.75 -11.066406 5.695312 -10.984375 L 4.75 -10.984375 C 4.832031 -11.039062 4.832031 -11.066406 4.832031 -11.066406 C 4.941406 -11.203125 5.128906 -11.121094 5.289062 -11.230469 C 5.371094 -11.308594 5.640625 -11.472656 5.777344 -11.472656 C 5.804688 -11.472656 5.832031 -11.445312 5.832031 -11.417969 C 5.855469 -11.363281 5.832031 -11.257812 5.804688 -11.203125 Z M 9.609375 -0.808594 C 9.664062 -0.890625 9.71875 -0.917969 9.796875 -0.917969 C 9.824219 -0.917969 9.851562 -0.917969 9.878906 -0.917969 C 9.824219 -0.808594 9.769531 -0.753906 9.664062 -0.730469 L 9.609375 -0.730469 C 9.582031 -0.753906 9.582031 -0.753906 9.609375 -0.808594 Z M 3.699219 -13.902344 C 3.589844 -13.980469 3.617188 -14.089844 3.617188 -14.199219 C 3.671875 -14.171875 3.726562 -14.171875 3.753906 -14.171875 C 3.753906 -14.0625 3.777344 -13.980469 3.699219 -13.902344 Z M 7.800781 -10.230469 C 7.882812 -10.285156 7.9375 -10.3125 7.960938 -10.3125 C 8.015625 -10.3125 8.042969 -10.285156 8.070312 -10.203125 C 8.015625 -10.203125 7.960938 -10.175781 7.910156 -10.175781 C 7.882812 -10.175781 7.828125 -10.175781 7.800781 -10.230469 Z M 8.53125 -10.175781 C 8.394531 -10.121094 8.3125 -10.066406 8.257812 -10.066406 C 8.207031 -10.066406 8.179688 -10.121094 8.125 -10.175781 Z M 5.507812 -18.410156 C 5.507812 -18.328125 5.535156 -18.21875 5.425781 -18.191406 L 5.425781 -18.410156 Z M 6.425781 -19.542969 C 6.425781 -19.460938 6.371094 -19.433594 6.289062 -19.40625 L 6.289062 -19.542969 Z M 4.644531 -16.976562 C 4.75 -16.871094 4.75 -16.84375 4.644531 -16.734375 Z M 3.453125 0.378906 C 3.429688 0.378906 3.402344 0.40625 3.375 0.40625 L 3.320312 0.40625 C 3.292969 0.378906 3.265625 0.378906 3.265625 0.351562 C 3.292969 0.351562 3.320312 0.296875 3.347656 0.296875 C 3.402344 0.296875 3.429688 0.351562 3.453125 0.378906 Z M 4.371094 -15.953125 C 4.371094 -15.898438 4.347656 -15.871094 4.292969 -15.84375 C 4.292969 -15.898438 4.320312 -16.035156 4.347656 -16.058594 C 4.347656 -16.035156 4.371094 -16.007812 4.371094 -15.953125 Z M 4.074219 -15.089844 C 4.074219 -15.0625 4.050781 -15.035156 3.996094 -15.007812 L 3.96875 -15.035156 L 3.96875 -15.167969 C 3.996094 -15.144531 4.050781 -15.117188 4.074219 -15.089844 Z M 5.289062 -17.84375 C 5.289062 -17.789062 5.261719 -17.761719 5.210938 -17.761719 C 5.210938 -17.816406 5.210938 -17.84375 5.238281 -17.867188 C 5.238281 -17.894531 5.238281 -17.894531 5.261719 -17.949219 C 5.261719 -17.894531 5.289062 -17.867188 5.289062 -17.84375 Z M 3.832031 -14.277344 C 3.832031 -14.226562 3.804688 -14.199219 3.753906 -14.199219 C 3.753906 -14.253906 3.753906 -14.277344 3.804688 -14.359375 C 3.804688 -14.332031 3.832031 -14.304688 3.832031 -14.277344 Z M 7.234375 -10.339844 C 7.261719 -10.363281 7.261719 -10.363281 7.289062 -10.363281 L 7.367188 -10.363281 L 7.367188 -10.3125 C 7.34375 -10.285156 7.234375 -10.3125 7.234375 -10.339844 Z M 8.828125 -9.988281 C 8.828125 -9.988281 8.773438 -9.960938 8.746094 -9.960938 C 8.71875 -9.960938 8.664062 -9.988281 8.664062 -10.015625 C 8.71875 -10.015625 8.773438 -10.015625 8.828125 -10.015625 Z M 12.445312 -3.238281 C 12.445312 -3.265625 12.46875 -3.292969 12.46875 -3.320312 L 12.496094 -3.320312 C 12.523438 -3.292969 12.523438 -3.210938 12.46875 -3.210938 Z M 2.242188 -7.585938 C 2.265625 -7.558594 2.265625 -7.53125 2.265625 -7.503906 C 2.265625 -7.476562 2.242188 -7.476562 2.214844 -7.421875 L 2.214844 -7.53125 C 2.214844 -7.558594 2.242188 -7.558594 2.242188 -7.585938 Z M 6.074219 -19.300781 C 6.046875 -19.300781 5.992188 -19.273438 5.992188 -19.191406 L 5.992188 -19.21875 C 6.046875 -19.21875 6.074219 -19.246094 6.074219 -19.300781 Z M 5.695312 -18.652344 C 5.695312 -18.679688 5.667969 -18.734375 5.640625 -18.761719 L 5.75 -18.761719 C 5.722656 -18.734375 5.722656 -18.679688 5.695312 -18.652344 Z M 6.613281 -10.472656 C 6.640625 -10.472656 6.667969 -10.472656 6.695312 -10.445312 C 6.667969 -10.445312 6.667969 -10.417969 6.640625 -10.417969 C 6.613281 -10.417969 6.585938 -10.445312 6.585938 -10.445312 C 6.585938 -10.472656 6.613281 -10.472656 6.613281 -10.472656 Z M 12.984375 -3.859375 L 12.902344 -3.859375 L 12.929688 -3.886719 Z M 2.699219 -9.582031 L 2.699219 -9.554688 L 2.671875 -9.554688 Z M 1.808594 -4.644531 L 1.78125 -4.667969 L 1.808594 -4.667969 Z M 9.394531 -0.648438 L 9.367188 -0.648438 L 9.367188 -0.675781 Z M 1.457031 -2.539062 L 1.457031 -2.5625 L 1.484375 -2.5625 Z M 4.074219 -15.414062 C 4.074219 -15.414062 4.101562 -15.414062 4.101562 -15.386719 C 4.101562 -15.386719 4.074219 -15.414062 4.074219 -15.414062 Z M 2.457031 -8.53125 L 2.429688 -8.554688 L 2.457031 -8.554688 Z M 2.457031 -8.53125 "/></g></g></g><g fill="#5f2c99" fill-opacity="1"><g transform="translate(14.862984, 27.175009)"><g/></g></g><g clip-path="url(#8e424d3fe8)"><g fill="#5f2c99" fill-opacity="1"><g transform="translate(22.743544, 27.175009)"><g><path d="M 5.316406 -16.601562 C 5.34375 -16.601562 5.398438 -16.601562 5.425781 -16.601562 C 5.425781 -16.65625 5.507812 -16.707031 5.558594 -16.707031 C 5.558594 -16.789062 5.585938 -16.816406 5.640625 -16.816406 C 5.640625 -16.898438 5.667969 -16.925781 5.75 -16.925781 C 5.75 -16.953125 5.832031 -16.976562 5.832031 -17.003906 C 5.882812 -16.925781 5.75 -16.953125 5.722656 -16.925781 C 5.722656 -16.871094 5.695312 -16.84375 5.640625 -16.84375 C 5.640625 -16.761719 5.613281 -16.734375 5.558594 -16.734375 C 5.535156 -16.65625 5.507812 -16.601562 5.425781 -16.601562 C 5.398438 -16.546875 5.398438 -16.519531 5.371094 -16.492188 C 5.34375 -16.519531 5.34375 -16.546875 5.316406 -16.601562 C 5.261719 -16.601562 5.210938 -16.601562 5.183594 -16.546875 C 5.046875 -16.382812 4.859375 -16.277344 4.75 -16.113281 C 4.644531 -15.683594 4.238281 -15.441406 4.101562 -14.980469 C 4.074219 -14.925781 4.023438 -14.871094 3.941406 -14.820312 C 3.859375 -14.738281 3.183594 -13.792969 3.183594 -13.738281 C 3.132812 -13.46875 3.023438 -13.335938 2.835938 -13.144531 C 2.753906 -13.089844 2.726562 -13.039062 2.726562 -12.957031 C 2.617188 -12.742188 2.5625 -12.578125 2.429688 -12.390625 C 2.292969 -12.171875 2.242188 -11.824219 2.132812 -11.605469 C 2.078125 -11.554688 2.105469 -11.417969 2.078125 -11.335938 C 2.160156 -11.363281 2.1875 -11.390625 2.214844 -11.5 C 2.242188 -11.578125 2.242188 -11.632812 2.375 -11.660156 C 2.402344 -11.6875 2.402344 -11.714844 2.457031 -11.742188 C 2.511719 -11.660156 2.402344 -11.6875 2.375 -11.6875 C 2.457031 -11.527344 2.347656 -11.390625 2.292969 -11.257812 C 2.265625 -11.203125 2.242188 -11.066406 2.160156 -11.148438 C 2.132812 -11.203125 2.132812 -11.257812 2.105469 -11.335938 C 1.96875 -11.28125 1.835938 -11.230469 1.78125 -11.09375 C 1.699219 -10.851562 1.484375 -10.660156 1.484375 -10.339844 C 1.457031 -10.257812 1.484375 -10.175781 1.429688 -10.09375 C 1.1875 -9.851562 1.105469 -9.5 0.972656 -9.203125 C 0.78125 -8.664062 0.566406 -8.070312 0.433594 -7.476562 C 0.457031 -7.367188 0.433594 -7.289062 0.378906 -7.179688 C 0.269531 -6.855469 0.160156 -6.53125 0.0546875 -6.179688 C 0.0546875 -5.964844 0 -5.804688 0.160156 -5.585938 C 0.160156 -5.558594 0.160156 -5.507812 0.160156 -5.480469 C 0.160156 -5.453125 0.136719 -5.453125 0.136719 -5.425781 C 0.109375 -5.453125 0.0820312 -5.453125 0.0546875 -5.480469 C 0.0273438 -5.507812 0.0273438 -5.507812 0 -5.535156 C -0.0273438 -5.507812 -0.0546875 -5.453125 -0.0820312 -5.398438 C -0.0546875 -5.34375 -0.0820312 -5.261719 -0.109375 -5.183594 C -0.160156 -4.667969 -0.324219 -3.292969 -0.324219 -2.753906 C -0.324219 -2.671875 -0.242188 -2.589844 -0.296875 -2.539062 C -0.40625 -2.347656 -0.351562 -2.050781 -0.296875 -1.863281 C -0.269531 -1.296875 -0.1875 -0.808594 -0.0273438 -0.296875 C 0.0546875 0.0546875 0.324219 0.351562 0.433594 0.675781 C 0.539062 0.945312 0.730469 1 0.835938 1.160156 C 1.078125 1.402344 1.429688 1.539062 1.753906 1.648438 C 1.917969 1.648438 2.105469 1.648438 2.265625 1.648438 C 2.539062 1.648438 2.808594 1.621094 3.023438 1.429688 C 3.15625 1.351562 3.347656 1.351562 3.480469 1.296875 C 3.617188 1.242188 3.726562 1.1875 3.859375 1.105469 C 4.265625 0.835938 4.695312 0.484375 5.15625 0.242188 C 5.398438 0.0546875 5.640625 -0.1875 5.910156 -0.378906 C 6.046875 -0.457031 6.101562 -0.539062 6.207031 -0.621094 C 6.34375 -0.753906 6.371094 -1 6.613281 -0.972656 C 6.722656 -1.050781 6.910156 -1.132812 6.855469 -1.296875 C 6.882812 -1.457031 6.992188 -1.484375 7.097656 -1.484375 C 7.207031 -1.484375 7.316406 -1.59375 7.367188 -1.671875 C 7.449219 -1.78125 7.691406 -1.835938 7.558594 -2.050781 C 7.664062 -2.1875 7.746094 -2.402344 7.9375 -2.457031 C 7.9375 -2.511719 7.988281 -2.5625 8.042969 -2.5625 C 8.042969 -2.644531 8.042969 -2.644531 8.152344 -2.5625 L 8.125 -2.5625 C 8.152344 -2.5625 8.179688 -2.5625 8.179688 -2.5625 C 8.449219 -2.644531 8.609375 -2.941406 8.773438 -3.132812 C 8.878906 -3.210938 8.878906 -3.292969 8.878906 -3.402344 C 8.878906 -3.480469 8.90625 -3.5625 8.933594 -3.644531 C 9.015625 -3.753906 9.097656 -3.914062 9.285156 -3.96875 C 9.230469 -4.074219 9.203125 -4.128906 9.175781 -4.128906 C 9.152344 -4.128906 9.097656 -4.101562 9.042969 -4.074219 C 9.015625 -4.074219 9.015625 -4.074219 8.988281 -4.074219 C 9.015625 -3.96875 8.960938 -3.886719 8.800781 -3.859375 C 8.691406 -3.589844 8.503906 -3.402344 8.3125 -3.265625 C 8.234375 -3.023438 8.015625 -2.886719 7.828125 -2.726562 C 7.828125 -2.726562 7.773438 -2.753906 7.746094 -2.78125 C 7.746094 -2.835938 7.746094 -2.886719 7.773438 -2.941406 C 7.910156 -3.078125 8.042969 -3.265625 8.3125 -3.265625 C 8.257812 -3.347656 8.152344 -3.402344 8.3125 -3.535156 C 8.476562 -3.644531 8.503906 -3.886719 8.691406 -3.96875 C 8.746094 -4.074219 8.773438 -4.128906 8.828125 -4.128906 C 8.878906 -4.128906 8.90625 -4.101562 8.988281 -4.074219 C 8.988281 -4.15625 8.988281 -4.320312 8.988281 -4.371094 C 9.175781 -4.722656 9.394531 -5.074219 9.769531 -5.34375 C 9.851562 -5.183594 9.71875 -5.101562 9.691406 -4.964844 C 9.472656 -4.804688 9.449219 -4.617188 9.367188 -4.371094 C 9.449219 -4.320312 9.472656 -4.183594 9.554688 -4.101562 C 9.421875 -4.074219 9.3125 -4.023438 9.285156 -3.96875 C 9.367188 -3.832031 9.449219 -3.671875 9.367188 -3.453125 C 9.285156 -3.210938 9.175781 -2.941406 9.152344 -2.617188 C 9.175781 -2.5625 9.175781 -2.511719 9.152344 -2.457031 C 8.878906 -2.050781 8.855469 -1.671875 8.800781 -1.214844 C 8.53125 -0.296875 8.257812 0.648438 8.042969 1.621094 C 7.910156 1.808594 7.855469 2.023438 7.910156 2.292969 C 7.910156 2.457031 8.042969 2.511719 8.207031 2.511719 C 8.234375 2.511719 8.257812 2.511719 8.285156 2.484375 C 8.449219 2.347656 8.636719 2.265625 8.664062 1.996094 C 8.746094 1.835938 8.828125 1.699219 8.828125 1.539062 C 8.90625 1.324219 9.042969 1.160156 9.042969 0.945312 C 8.988281 0.675781 9.203125 0.566406 9.257812 0.324219 C 9.285156 0.242188 9.394531 0.160156 9.421875 0.109375 C 9.394531 -0.0273438 9.449219 -0.136719 9.449219 -0.242188 C 9.421875 -0.269531 9.394531 -0.269531 9.394531 -0.296875 C 9.449219 -0.351562 9.421875 -0.269531 9.449219 -0.242188 C 9.582031 -0.269531 9.636719 -0.378906 9.71875 -0.433594 C 9.796875 -0.511719 9.746094 -0.621094 9.746094 -0.753906 C 9.71875 -0.890625 9.664062 -0.917969 9.582031 -0.890625 C 9.554688 -0.890625 9.5 -0.917969 9.5 -0.945312 C 9.472656 -1.078125 9.554688 -1.160156 9.71875 -1.214844 C 9.824219 -1.214844 9.769531 -1.132812 9.796875 -1.1875 C 9.769531 -1.375 9.933594 -1.511719 9.851562 -1.753906 C 9.824219 -1.808594 9.824219 -1.835938 9.878906 -1.835938 C 9.90625 -1.835938 9.933594 -1.835938 9.960938 -1.835938 C 9.988281 -1.835938 10.015625 -1.835938 10.042969 -1.835938 C 10.175781 -1.835938 10.203125 -1.890625 10.121094 -2.023438 C 10.121094 -2.105469 10.09375 -2.160156 10.066406 -2.214844 C 9.988281 -2.214844 9.933594 -2.265625 9.933594 -2.347656 C 9.933594 -2.375 9.960938 -2.402344 9.960938 -2.429688 C 10.042969 -2.347656 10.042969 -2.265625 10.066406 -2.1875 C 10.09375 -2.1875 10.148438 -2.1875 10.175781 -2.214844 C 10.3125 -2.347656 10.339844 -2.484375 10.390625 -2.617188 C 10.363281 -2.699219 10.285156 -2.753906 10.203125 -2.753906 C 10.175781 -2.753906 10.148438 -2.753906 10.121094 -2.753906 C 10.09375 -2.726562 10.066406 -2.699219 10.042969 -2.699219 C 9.988281 -2.726562 9.988281 -2.835938 10.015625 -2.859375 C 10.066406 -3.023438 10.148438 -3.183594 10.203125 -3.347656 C 10.285156 -3.265625 10.3125 -3.183594 10.339844 -3.105469 C 10.363281 -3.105469 10.363281 -3.105469 10.390625 -3.105469 C 10.527344 -3.15625 10.714844 -3.210938 10.714844 -3.347656 C 10.742188 -3.453125 10.6875 -3.5625 10.609375 -3.699219 C 10.582031 -3.726562 10.609375 -3.832031 10.660156 -3.859375 C 10.769531 -3.886719 10.878906 -3.941406 10.851562 -4.050781 C 10.878906 -4.320312 11.039062 -4.480469 11.148438 -4.667969 C 11.28125 -4.964844 11.445312 -5.289062 11.5 -5.613281 C 11.527344 -5.722656 11.5 -5.777344 11.527344 -5.804688 C 11.824219 -6.019531 11.851562 -6.34375 12.011719 -6.613281 C 12.253906 -6.9375 12.335938 -7.367188 12.445312 -7.773438 C 12.46875 -7.9375 12.28125 -8.179688 12.148438 -8.257812 C 12.011719 -8.367188 11.824219 -8.421875 11.660156 -8.421875 C 11.527344 -8.421875 11.390625 -8.394531 11.257812 -8.285156 C 10.933594 -8.097656 10.714844 -7.773438 10.582031 -7.367188 C 10.445312 -7.019531 10.339844 -6.695312 10.09375 -6.453125 C 9.988281 -6.289062 9.851562 -6.179688 9.746094 -6.074219 C 9.449219 -5.535156 9.097656 -5.101562 8.773438 -4.644531 C 7.910156 -3.726562 7.097656 -2.78125 6.316406 -1.863281 C 6.261719 -1.808594 6.179688 -1.753906 6.101562 -1.699219 C 5.855469 -1.457031 5.585938 -1.242188 5.34375 -1.050781 C 4.644531 -0.378906 3.777344 0.136719 2.941406 0.59375 C 2.5625 0.835938 2.242188 0.945312 1.835938 1 C 1.78125 1 1.753906 1 1.699219 1 C 1.59375 1 1.511719 0.972656 1.457031 0.917969 C 1.324219 0.835938 1.160156 0.835938 1.105469 0.648438 C 0.917969 0.351562 0.730469 0.0546875 0.675781 -0.296875 C 0.675781 -0.484375 0.648438 -0.703125 0.59375 -0.945312 C 0.484375 -1.296875 0.457031 -1.78125 0.457031 -2.160156 C 0.433594 -2.511719 0.457031 -2.859375 0.457031 -3.210938 C 0.484375 -3.292969 0.511719 -3.375 0.511719 -3.453125 C 0.59375 -3.996094 0.703125 -4.507812 0.78125 -5.046875 C 0.835938 -5.425781 0.945312 -5.855469 1.078125 -6.234375 C 1.132812 -6.503906 1.132812 -6.75 1.214844 -6.992188 C 1.324219 -7.261719 1.324219 -7.503906 1.457031 -7.800781 C 1.484375 -7.910156 1.429688 -7.988281 1.511719 -8.042969 C 1.753906 -8.394531 1.726562 -8.90625 1.945312 -9.367188 C 1.996094 -9.449219 2.023438 -9.582031 2.078125 -9.664062 C 2.347656 -10.042969 2.484375 -10.390625 2.644531 -10.851562 C 2.808594 -11.230469 2.941406 -11.632812 3.238281 -11.984375 C 3.429688 -12.335938 3.671875 -12.632812 3.886719 -12.984375 C 3.886719 -13.089844 3.996094 -13.226562 4.050781 -13.359375 C 4.292969 -13.550781 4.398438 -13.875 4.5625 -14.117188 C 4.722656 -14.414062 4.886719 -14.601562 5.019531 -14.898438 C 5.019531 -14.925781 5.074219 -14.980469 5.128906 -15.035156 C 5.480469 -15.25 5.695312 -15.601562 5.804688 -16.058594 C 5.910156 -16.195312 5.992188 -16.332031 6.128906 -16.410156 C 6.398438 -16.628906 6.613281 -16.925781 6.773438 -17.195312 C 6.992188 -17.464844 7.152344 -17.707031 7.394531 -17.84375 C 7.53125 -17.949219 7.640625 -18.113281 7.691406 -18.191406 C 7.910156 -18.355469 8.070312 -18.515625 8.257812 -18.652344 C 8.53125 -18.894531 8.855469 -19.109375 9.125 -19.300781 C 9.257812 -19.40625 9.367188 -19.542969 9.367188 -19.703125 C 9.394531 -19.867188 9.472656 -19.949219 9.636719 -20.054688 C 9.851562 -20.164062 10.042969 -20.269531 10.203125 -20.488281 C 10.285156 -20.59375 10.390625 -20.621094 10.527344 -20.648438 C 11.445312 -20.648438 12.308594 -20.488281 12.792969 -19.597656 C 13.011719 -19.191406 13.144531 -18.8125 13.308594 -18.4375 C 13.359375 -18.246094 13.308594 -18.003906 13.335938 -17.789062 C 13.28125 -17.707031 13.28125 -17.625 13.28125 -17.546875 C 13.253906 -17.058594 13.226562 -16.65625 13.089844 -16.25 C 13.039062 -16.167969 13.039062 -16.085938 13.011719 -15.980469 C 12.765625 -15.332031 12.417969 -14.738281 11.957031 -14.226562 C 11.554688 -13.792969 11.175781 -13.335938 10.796875 -12.902344 C 10.582031 -12.660156 10.390625 -12.46875 10.09375 -12.390625 C 9.960938 -12.335938 9.933594 -12.253906 9.796875 -12.199219 C 9.664062 -12.09375 9.71875 -11.769531 9.878906 -11.660156 C 10.042969 -11.578125 10.175781 -11.527344 10.339844 -11.527344 C 10.554688 -11.527344 10.742188 -11.632812 10.90625 -11.742188 C 11.363281 -12.121094 11.851562 -12.445312 12.199219 -12.957031 C 12.46875 -13.199219 12.6875 -13.46875 12.929688 -13.765625 C 13.28125 -14.089844 13.496094 -14.496094 13.792969 -14.898438 C 13.902344 -15.222656 14.007812 -15.519531 14.007812 -15.871094 C 14.0625 -16.195312 14.144531 -16.492188 14.226562 -16.816406 C 14.277344 -17.003906 14.253906 -17.222656 14.253906 -17.464844 C 14.253906 -17.734375 14.144531 -18.03125 14.226562 -18.355469 C 14.253906 -18.410156 14.226562 -18.515625 14.144531 -18.625 C 14.089844 -18.8125 13.441406 -20.164062 13.28125 -20.269531 C 12.742188 -20.785156 12.171875 -21.109375 11.472656 -21.164062 C 11.121094 -21.164062 10.769531 -21.164062 10.417969 -21.164062 C 10.3125 -21.164062 10.203125 -21.136719 10.09375 -21.109375 C 9.636719 -20.917969 9.175781 -20.703125 8.773438 -20.515625 C 8.125 -20.164062 7.640625 -19.652344 7.125 -19.164062 C 6.992188 -18.949219 6.882812 -18.734375 6.613281 -18.625 C 6.398438 -18.21875 5.992188 -17.84375 5.667969 -17.492188 C 5.480469 -17.222656 5.34375 -16.925781 5.316406 -16.601562 Z M 3.671875 -13.875 C 3.699219 -13.902344 3.699219 -13.957031 3.699219 -13.980469 C 3.777344 -13.875 3.699219 -13.902344 3.671875 -13.902344 C 3.617188 -13.820312 3.589844 -13.792969 3.535156 -13.792969 C 3.535156 -13.710938 3.480469 -13.683594 3.429688 -13.683594 C 3.480469 -13.550781 3.480469 -13.441406 3.347656 -13.414062 C 3.375 -13.335938 3.375 -13.226562 3.265625 -13.199219 C 3.265625 -13.117188 3.238281 -13.089844 3.15625 -13.089844 C 3.132812 -13.0625 3.132812 -13.039062 3.105469 -13.011719 C 3.050781 -13.089844 3.132812 -13.0625 3.15625 -13.0625 C 3.15625 -13.144531 3.183594 -13.171875 3.292969 -13.171875 C 3.292969 -13.28125 3.238281 -13.386719 3.375 -13.414062 C 3.375 -13.496094 3.347656 -13.632812 3.429688 -13.683594 C 3.453125 -13.738281 3.480469 -13.765625 3.535156 -13.765625 C 3.5625 -13.847656 3.589844 -13.875 3.671875 -13.875 Z M 2.96875 -12.714844 C 2.996094 -12.742188 2.996094 -12.765625 3.023438 -12.792969 C 3.105469 -12.714844 2.96875 -12.742188 2.96875 -12.714844 C 2.941406 -12.6875 2.941406 -12.660156 2.941406 -12.632812 C 2.835938 -12.714844 2.941406 -12.6875 2.96875 -12.714844 Z M 4.941406 -15.898438 C 4.941406 -15.953125 4.992188 -15.980469 5.046875 -15.980469 C 5.046875 -16.058594 5.019531 -16.113281 5.019531 -16.167969 C 5.074219 -16.222656 5.128906 -16.277344 5.183594 -16.304688 C 5.261719 -16.332031 5.261719 -16.167969 5.183594 -16.085938 C 5.15625 -16.058594 5.074219 -16.058594 5.046875 -16.035156 C 5.019531 -15.925781 4.992188 -15.898438 4.941406 -15.898438 C 4.914062 -15.84375 4.886719 -15.761719 4.804688 -15.761719 C 4.832031 -15.710938 4.832031 -15.683594 4.804688 -15.65625 C 4.695312 -15.761719 4.832031 -15.710938 4.804688 -15.761719 C 4.804688 -15.84375 4.886719 -15.871094 4.941406 -15.898438 Z M 4.667969 -15.414062 C 4.667969 -15.441406 4.667969 -15.464844 4.695312 -15.492188 C 4.777344 -15.414062 4.667969 -15.441406 4.644531 -15.441406 C 4.667969 -15.359375 4.644531 -15.332031 4.535156 -15.332031 C 4.535156 -15.195312 4.5625 -15.117188 4.425781 -15.089844 C 4.453125 -14.980469 4.425781 -14.925781 4.371094 -14.925781 C 4.347656 -14.871094 4.320312 -14.847656 4.265625 -14.820312 C 4.292969 -14.574219 4.128906 -14.46875 3.914062 -14.386719 C 3.96875 -14.332031 3.996094 -14.199219 3.914062 -14.171875 C 3.914062 -14.144531 3.859375 -14.144531 3.804688 -14.144531 C 3.777344 -14.144531 3.777344 -14.199219 3.804688 -14.226562 C 3.886719 -14.253906 3.941406 -14.332031 3.941406 -14.386719 C 3.941406 -14.601562 4.074219 -14.738281 4.265625 -14.820312 C 4.265625 -14.871094 4.320312 -14.925781 4.371094 -14.925781 C 4.371094 -14.980469 4.347656 -15.089844 4.425781 -15.089844 C 4.425781 -15.167969 4.398438 -15.25 4.5625 -15.277344 C 4.5625 -15.386719 4.589844 -15.414062 4.667969 -15.414062 Z M 1.945312 -10.769531 C 1.945312 -10.796875 1.96875 -10.824219 1.96875 -10.824219 C 2.078125 -10.769531 1.96875 -10.796875 1.945312 -10.769531 C 1.917969 -10.742188 1.917969 -10.6875 1.890625 -10.660156 C 1.808594 -10.769531 1.917969 -10.742188 1.945312 -10.769531 Z M 8.339844 -2.886719 C 8.367188 -2.941406 8.339844 -2.96875 8.367188 -2.996094 C 8.449219 -2.886719 8.367188 -2.941406 8.339844 -2.941406 C 8.339844 -2.886719 8.3125 -2.859375 8.3125 -2.835938 C 8.234375 -2.941406 8.3125 -2.886719 8.339844 -2.886719 Z M 9.90625 -5.585938 C 9.90625 -5.613281 9.933594 -5.640625 9.933594 -5.640625 C 9.988281 -5.585938 9.90625 -5.613281 9.90625 -5.585938 C 9.851562 -5.558594 9.851562 -5.535156 9.824219 -5.507812 C 9.769531 -5.585938 9.851562 -5.558594 9.90625 -5.585938 Z M 2.726562 -12.28125 C 2.671875 -12.308594 2.699219 -12.308594 2.699219 -12.335938 C 2.808594 -12.28125 2.726562 -12.28125 2.699219 -12.28125 C 2.699219 -12.199219 2.726562 -12.039062 2.617188 -12.011719 C 2.5625 -11.984375 2.539062 -11.957031 2.5625 -11.929688 C 2.484375 -12.011719 2.5625 -11.984375 2.617188 -12.011719 C 2.617188 -12.121094 2.5625 -12.253906 2.726562 -12.28125 Z M 9.878906 -3.753906 C 9.878906 -3.699219 9.878906 -3.671875 9.851562 -3.644531 C 9.851562 -3.589844 9.824219 -3.5625 9.824219 -3.5625 C 9.824219 -3.589844 9.796875 -3.644531 9.769531 -3.671875 C 9.796875 -3.699219 9.824219 -3.726562 9.878906 -3.726562 C 9.878906 -3.777344 9.90625 -3.859375 9.90625 -3.886719 C 9.90625 -3.914062 9.933594 -3.914062 9.933594 -3.941406 C 9.933594 -3.914062 9.960938 -3.886719 9.960938 -3.859375 C 9.933594 -3.832031 9.90625 -3.777344 9.878906 -3.753906 Z M 10.527344 -4.183594 C 10.527344 -4.101562 10.554688 -3.996094 10.445312 -3.96875 C 10.472656 -3.832031 10.363281 -3.699219 10.3125 -3.5625 C 10.257812 -3.5625 10.257812 -3.589844 10.257812 -3.644531 C 10.203125 -3.777344 10.285156 -3.914062 10.445312 -3.96875 C 10.390625 -4.050781 10.390625 -4.15625 10.527344 -4.183594 C 10.527344 -4.210938 10.554688 -4.320312 10.527344 -4.371094 C 10.554688 -4.371094 10.582031 -4.347656 10.609375 -4.320312 C 10.609375 -4.210938 10.582031 -4.183594 10.527344 -4.183594 Z M 1.105469 -8.746094 C 1.132812 -8.773438 1.132812 -8.800781 1.160156 -8.828125 C 1.214844 -8.746094 1.132812 -8.773438 1.105469 -8.773438 C 1.105469 -8.664062 1.132812 -8.582031 1 -8.53125 C 1.050781 -8.257812 1.078125 -8.070312 0.890625 -7.960938 C 0.863281 -7.9375 0.863281 -7.910156 0.808594 -7.882812 C 0.730469 -7.960938 0.863281 -7.9375 0.890625 -7.9375 C 0.835938 -8.152344 0.863281 -8.367188 1.027344 -8.53125 C 1.027344 -8.636719 1 -8.71875 1.105469 -8.746094 Z M 1.699219 -10.363281 C 1.726562 -10.390625 1.726562 -10.417969 1.78125 -10.445312 C 1.835938 -10.363281 1.726562 -10.390625 1.699219 -10.363281 C 1.699219 -10.339844 1.699219 -10.285156 1.671875 -10.230469 C 1.671875 -10.230469 1.726562 -10.203125 1.699219 -10.203125 C 1.648438 -10.230469 1.621094 -10.257812 1.621094 -10.285156 C 1.648438 -10.3125 1.671875 -10.339844 1.699219 -10.363281 Z M 8.800781 0.945312 C 8.828125 0.917969 8.828125 0.890625 8.855469 0.890625 C 8.90625 0.945312 8.828125 0.917969 8.800781 0.945312 C 8.800781 1 8.800781 1.027344 8.773438 1.105469 C 8.746094 1.105469 8.71875 1.050781 8.71875 1.050781 C 8.746094 1.027344 8.773438 1 8.800781 0.945312 Z M 13.929688 -16.707031 C 13.957031 -16.761719 13.929688 -16.816406 13.929688 -16.871094 C 13.980469 -16.871094 14.007812 -16.84375 14.007812 -16.816406 C 14.035156 -16.761719 13.980469 -16.734375 13.929688 -16.734375 C 13.929688 -16.65625 13.929688 -16.601562 13.929688 -16.546875 C 13.929688 -16.519531 13.902344 -16.519531 13.902344 -16.492188 C 13.875 -16.519531 13.847656 -16.546875 13.847656 -16.601562 C 13.847656 -16.65625 13.902344 -16.707031 13.929688 -16.707031 Z M 9.421875 -1.863281 C 9.421875 -1.890625 9.394531 -1.945312 9.394531 -1.996094 C 9.421875 -1.996094 9.449219 -1.96875 9.449219 -1.945312 C 9.472656 -1.917969 9.449219 -1.890625 9.421875 -1.863281 C 9.421875 -1.808594 9.421875 -1.726562 9.394531 -1.671875 C 9.394531 -1.648438 9.339844 -1.621094 9.339844 -1.621094 C 9.3125 -1.648438 9.3125 -1.671875 9.3125 -1.699219 C 9.3125 -1.78125 9.3125 -1.835938 9.421875 -1.863281 Z M 7.691406 -2.484375 C 7.640625 -2.457031 7.613281 -2.429688 7.558594 -2.402344 C 7.53125 -2.402344 7.449219 -2.429688 7.449219 -2.457031 C 7.449219 -2.539062 7.558594 -2.539062 7.613281 -2.539062 C 7.640625 -2.539062 7.640625 -2.539062 7.691406 -2.484375 Z M 0.648438 -7.34375 C 0.648438 -7.316406 0.648438 -7.316406 0.621094 -7.289062 C 0.59375 -7.289062 0.566406 -7.34375 0.59375 -7.394531 C 0.648438 -7.394531 0.648438 -7.367188 0.648438 -7.34375 Z M 9.960938 -4.265625 C 9.988281 -4.265625 9.988281 -4.265625 9.988281 -4.210938 C 10.066406 -4.210938 10.015625 -4.101562 9.988281 -4.101562 C 9.960938 -4.101562 9.960938 -4.128906 9.960938 -4.15625 C 9.960938 -4.183594 9.960938 -4.210938 9.960938 -4.265625 Z M 9.796875 -3.238281 C 9.769531 -3.238281 9.746094 -3.265625 9.746094 -3.292969 C 9.796875 -3.292969 9.796875 -3.265625 9.796875 -3.238281 Z M 10.257812 -4.964844 C 10.285156 -4.964844 10.3125 -4.914062 10.285156 -4.914062 C 10.285156 -4.886719 10.285156 -4.859375 10.230469 -4.859375 C 10.230469 -4.886719 10.257812 -4.914062 10.257812 -4.964844 Z M 0 -4.722656 C 0 -4.695312 0.0546875 -4.667969 0.0546875 -4.617188 C 0 -4.617188 -0.0273438 -4.667969 -0.0546875 -4.722656 C -0.0273438 -4.722656 -0.0273438 -4.722656 0 -4.722656 Z M 8.878906 0.40625 L 8.933594 0.40625 L 8.878906 0.433594 Z M 6.152344 -0.917969 L 6.179688 -0.917969 L 6.179688 -0.890625 Z M 10.660156 -4.617188 L 10.636719 -4.617188 L 10.660156 -4.644531 Z M 10.742188 -4.832031 L 10.742188 -4.804688 L 10.714844 -4.832031 Z M 0.296875 -6.128906 L 0.324219 -6.128906 L 0.324219 -6.101562 Z M 0.40625 -6.476562 L 0.378906 -6.476562 L 0.40625 -6.53125 Z M 0.433594 -6.855469 L 0.457031 -6.828125 L 0.433594 -6.773438 Z M 9.90625 -1.996094 L 9.878906 -1.996094 L 9.878906 -2.050781 Z M 9.582031 -2.617188 L 9.554688 -2.617188 L 9.582031 -2.644531 Z M 10.066406 -4.507812 L 10.09375 -4.507812 L 10.09375 -4.453125 Z M 1.351562 -9.394531 L 1.324219 -9.394531 L 1.351562 -9.421875 Z M 1.429688 -9.609375 L 1.402344 -9.609375 L 1.429688 -9.636719 Z M 0.539062 -7.070312 L 0.566406 -7.070312 L 0.539062 -7.019531 Z M 0.675781 -7.664062 L 0.675781 -7.613281 Z M 8.042969 -2.457031 C 8.015625 -2.457031 7.960938 -2.457031 7.9375 -2.457031 C 7.960938 -2.429688 7.960938 -2.402344 7.988281 -2.375 C 7.988281 -2.402344 8.015625 -2.429688 8.042969 -2.457031 Z M 8.152344 -2.5625 C 8.097656 -2.5625 8.070312 -2.5625 8.042969 -2.5625 C 8.042969 -2.539062 8.042969 -2.484375 8.042969 -2.457031 C 8.097656 -2.484375 8.125 -2.511719 8.125 -2.5625 Z M 8.664062 -3.96875 C 8.691406 -3.914062 8.746094 -3.886719 8.855469 -3.859375 C 8.800781 -3.914062 8.773438 -3.96875 8.664062 -3.96875 Z M 8.664062 -3.96875 "/></g></g></g></g><g clip-path="url(#3e650d1c3a)"><path fill="#5f2c99" d="M 11.515625 11.578125 C 11.875 11.085938 12.40625 10.808594 12.917969 10.53125 C 13.285156 10.332031 13.699219 10.234375 14.144531 10.214844 C 14.839844 10.183594 15.457031 10.375 15.996094 10.761719 C 16.324219 11 16.617188 11.296875 16.878906 11.601562 C 17.117188 11.871094 17.304688 12.183594 17.488281 12.488281 C 17.769531 12.957031 17.96875 13.457031 18.105469 13.980469 C 18.234375 14.496094 18.347656 15.011719 18.363281 15.542969 C 18.363281 15.566406 18.382812 15.589844 18.394531 15.613281 C 18.421875 15.585938 18.464844 15.5625 18.46875 15.53125 C 18.535156 15.121094 18.707031 14.742188 18.867188 14.359375 C 19.035156 13.964844 19.25 13.589844 19.535156 13.265625 C 19.796875 12.96875 20.070312 12.679688 20.355469 12.402344 C 20.757812 12.023438 21.15625 11.636719 21.59375 11.292969 C 22.039062 10.941406 22.550781 10.691406 23.125 10.578125 C 24.003906 10.398438 24.832031 10.476562 25.496094 11.121094 C 25.882812 11.496094 26.101562 11.972656 26.171875 12.5 C 26.210938 12.792969 26.253906 13.09375 26.242188 13.390625 C 26.222656 13.894531 26.113281 14.386719 25.96875 14.875 C 25.757812 15.597656 25.425781 16.273438 25.097656 16.953125 C 24.824219 17.519531 24.59375 18.101562 24.328125 18.667969 C 24.164062 19.015625 23.964844 19.351562 23.777344 19.6875 C 23.597656 20.011719 23.417969 20.339844 23.222656 20.65625 C 22.808594 21.328125 22.378906 21.996094 21.957031 22.667969 C 21.410156 23.523438 20.867188 24.386719 20.308594 25.234375 C 20.179688 25.4375 20 25.617188 19.816406 25.777344 C 19.660156 25.914062 19.476562 25.851562 19.339844 25.6875 C 19.222656 25.546875 19.074219 25.425781 18.941406 25.296875 C 18.414062 24.800781 17.863281 24.320312 17.359375 23.800781 C 17 23.429688 16.6875 23.011719 16.367188 22.605469 C 16.097656 22.257812 15.75 21.992188 15.40625 21.722656 C 15.109375 21.488281 14.808594 21.261719 14.507812 21.03125 C 13.84375 20.535156 13.21875 20 12.644531 19.414062 C 12.203125 18.964844 11.835938 18.46875 11.503906 17.9375 C 11.117188 17.316406 10.859375 16.644531 10.667969 15.949219 C 10.59375 15.671875 10.582031 15.378906 10.550781 15.09375 C 10.53125 14.878906 10.5 14.664062 10.515625 14.453125 C 10.566406 13.792969 10.679688 13.148438 10.988281 12.550781 C 11.15625 12.226562 11.335938 11.910156 11.515625 11.578125 M 21.882812 12.136719 C 21.550781 12.269531 21.230469 12.417969 21.003906 12.699219 C 20.675781 13.105469 20.320312 13.496094 20.035156 13.929688 C 19.691406 14.449219 19.398438 15.007812 19.105469 15.558594 C 18.835938 16.058594 18.785156 16.621094 18.695312 17.167969 C 18.652344 17.445312 18.648438 17.726562 18.617188 18.003906 C 18.589844 18.265625 18.347656 18.402344 18.183594 18.246094 C 18.117188 18.183594 18.128906 18.046875 18.101562 17.945312 C 18.09375 17.910156 18.082031 17.878906 18.066406 17.847656 C 18.042969 17.875 18.011719 17.898438 17.996094 17.929688 C 17.929688 18.070312 17.878906 18.214844 17.808594 18.351562 C 17.75 18.460938 17.539062 18.539062 17.453125 18.472656 C 17.351562 18.394531 17.242188 18.3125 17.324219 18.144531 C 17.460938 17.867188 17.578125 17.582031 17.695312 17.296875 C 17.75 17.167969 17.800781 17.046875 17.722656 16.886719 C 17.519531 16.480469 17.339844 16.058594 17.160156 15.640625 C 16.863281 14.960938 16.46875 14.332031 15.996094 13.75 C 15.757812 13.449219 15.496094 13.167969 15.246094 12.878906 C 14.753906 12.324219 14.210938 11.832031 13.496094 11.554688 C 13.21875 11.445312 12.929688 11.367188 12.628906 11.464844 C 12.347656 11.550781 12.195312 11.78125 12.027344 11.984375 C 11.914062 12.121094 11.828125 12.292969 11.769531 12.464844 C 11.679688 12.734375 11.625 13.015625 11.6875 13.308594 C 11.734375 13.523438 11.71875 13.753906 11.773438 13.964844 C 11.929688 14.566406 12.160156 15.144531 12.460938 15.691406 C 12.769531 16.257812 13.089844 16.816406 13.425781 17.363281 C 13.792969 17.964844 14.175781 18.554688 14.570312 19.140625 C 15.015625 19.800781 15.476562 20.445312 15.9375 21.09375 C 16.117188 21.34375 16.292969 21.605469 16.515625 21.816406 C 16.75 22.042969 17.035156 22.226562 17.308594 22.410156 C 17.773438 22.730469 18.246094 23.050781 18.726562 23.347656 C 19.089844 23.574219 19.476562 23.769531 19.855469 23.980469 C 19.960938 24.039062 20.042969 24.046875 20.109375 23.914062 C 20.171875 23.785156 20.265625 23.671875 20.339844 23.546875 C 20.640625 23.058594 20.9375 22.566406 21.234375 22.078125 C 21.496094 21.652344 21.753906 21.222656 22.023438 20.796875 C 22.320312 20.324219 22.632812 19.859375 22.929688 19.386719 C 23.308594 18.78125 23.660156 18.160156 24.058594 17.566406 C 24.625 16.726562 24.832031 15.785156 24.914062 14.808594 C 24.941406 14.480469 24.910156 14.144531 24.882812 13.816406 C 24.851562 13.460938 24.757812 13.121094 24.554688 12.8125 C 24.164062 12.21875 23.609375 11.890625 22.886719 11.902344 C 22.558594 11.90625 22.230469 12.042969 21.882812 12.136719 M 17.789062 15.257812 C 17.707031 14.859375 17.660156 14.449219 17.535156 14.066406 C 17.390625 13.625 17.199219 13.195312 16.980469 12.785156 C 16.609375 12.09375 16.117188 11.492188 15.40625 11.085938 C 14.863281 10.773438 14.285156 10.6875 13.675781 10.851562 C 13.613281 10.867188 13.554688 10.902344 13.496094 10.929688 C 13.558594 10.953125 13.617188 10.980469 13.675781 11.003906 C 13.691406 11.011719 13.707031 11.019531 13.722656 11.023438 C 14.25 11.199219 14.6875 11.515625 15.078125 11.878906 C 15.460938 12.234375 15.800781 12.625 16.152344 13.007812 C 16.675781 13.582031 17.070312 14.234375 17.4375 14.90625 C 17.5625 15.136719 17.65625 15.382812 17.769531 15.621094 C 17.78125 15.648438 17.820312 15.664062 17.847656 15.683594 C 17.855469 15.652344 17.875 15.617188 17.871094 15.585938 C 17.855469 15.480469 17.832031 15.378906 17.789062 15.257812 M 11.195312 14.050781 C 11.164062 14.128906 11.105469 14.203125 11.105469 14.277344 C 11.105469 14.519531 11.125 14.765625 11.140625 15.007812 C 11.148438 15.148438 11.144531 15.296875 11.179688 15.433594 C 11.289062 15.878906 11.398438 16.316406 11.574219 16.746094 C 11.917969 17.589844 12.425781 18.328125 13.054688 18.988281 C 13.363281 19.316406 13.710938 19.613281 14.050781 19.917969 C 14.238281 20.085938 14.433594 20.246094 14.632812 20.40625 C 14.660156 20.429688 14.707031 20.441406 14.746094 20.457031 C 14.730469 20.417969 14.726562 20.371094 14.703125 20.335938 C 14.550781 20.132812 14.378906 19.9375 14.238281 19.722656 C 13.925781 19.253906 13.625 18.777344 13.324219 18.300781 C 12.917969 17.640625 12.496094 16.992188 12.121094 16.316406 C 11.726562 15.601562 11.332031 14.878906 11.195312 14.050781 M 22.988281 11.359375 C 23.238281 11.3125 23.472656 11.375 23.707031 11.449219 C 24.375 11.667969 24.851562 12.105469 25.175781 12.691406 C 25.40625 13.109375 25.507812 13.566406 25.476562 14.042969 C 25.472656 14.078125 25.5 14.121094 25.511719 14.160156 C 25.535156 14.117188 25.578125 14.078125 25.582031 14.039062 C 25.597656 13.683594 25.625 13.328125 25.617188 12.972656 C 25.609375 12.746094 25.566406 12.515625 25.507812 12.292969 C 25.292969 11.496094 24.632812 11.042969 23.785156 11.078125 C 23.503906 11.09375 23.222656 11.164062 22.945312 11.21875 C 22.863281 11.234375 22.789062 11.277344 22.714844 11.308594 C 22.792969 11.324219 22.871094 11.339844 22.988281 11.359375 M 18.269531 23.730469 C 18.234375 23.710938 18.203125 23.683594 18.167969 23.667969 C 18.117188 23.648438 18.066406 23.636719 18.015625 23.621094 C 18.039062 23.660156 18.058594 23.703125 18.089844 23.734375 C 18.472656 24.082031 18.859375 24.429688 19.246094 24.773438 C 19.28125 24.800781 19.367188 24.8125 19.40625 24.789062 C 19.476562 24.75 19.542969 24.6875 19.585938 24.617188 C 19.605469 24.589844 19.585938 24.496094 19.558594 24.480469 C 19.136719 24.230469 18.710938 23.992188 18.269531 23.730469 Z M 18.269531 23.730469 " fill-opacity="1" fill-rule="nonzero"/></g></svg>